#!OML:ASF F:\VICON\USERDATA\INSTALL\rory3\rory3.ASF
:FULLY-SPECIFIED
:DEGREES
466
root -8.46439 16.7024 -9.3752 188.935 -22.9373 -176.622
lowerback -10.288 -2.19892 1.89131
upperback -6.28851 -3.69069 1.99287
thorax -0.761494 -2.12199 0.656732
lowerneck -13.8927 0.915883 -6.67624
upperneck 30.1025 -1.62222 9.20672
head 12.3108 -1.04204 4.29761
rclavicle 4.09745e-014 -2.08724e-014
rhumerus -45.1776 3.52195 -90.9737
rradius 29.3738
rwrist 4.47815
rhand -20.03 -43.8882
rfingers 7.12502
rthumb 6.31083 -1153.77
lclavicle 4.09745e-014 -2.08724e-014
lhumerus -27.8791 -26.9409 96.696
lradius 45.6078
lwrist 15.5686
lhand -36.4015 327.022
lfingers 7.12502
lthumb -9.49719 -3.21154
rfemur -29.3751 27.1731 20.5844
rtibia 53.8073
rfoot -25.8804 1.03252
rtoes -0.837511
lfemur -30.8272 -5.81809 -18.3993
ltibia 49.4592
lfoot -28.7925 3.71971
ltoes 4.58724
467
root -8.48891 16.6886 -9.39337 189.304 -21.9815 -176.839
lowerback -9.74612 -2.15388 1.65441
upperback -6.67288 -3.62729 1.93777
thorax -1.44685 -2.10596 0.78236
lowerneck -13.4536 0.887923 -6.77887
upperneck 30.3256 -1.8398 9.36295
head 12.3305 -1.18466 4.34202
rclavicle 6.40087e-014 -1.94809e-014
rhumerus -45.7367 2.37215 -90.2897
rradius 29.1226
rwrist 3.70427
rhand -17.5321 -45.3699
rfingers 7.12502
rthumb 8.72188 -1155.17
lclavicle 6.40087e-014 -1.94809e-014
lhumerus -28.441 -27.5601 97.3338
lradius 45.6807
lwrist 15.5113
lhand -36.3492 326.762
lfingers 7.12502
lthumb -9.44674 -3.46955
rfemur -30.4506 26.7412 20.2801
rtibia 55.2488
rfoot -25.4639 -0.0379313
rtoes -7.0122
lfemur -30.8888 -5.3698 -18.7379
ltibia 49.3516
lfoot -28.7381 3.84844
ltoes 4.17929
468
root -8.55016 16.6874 -9.46188 189.764 -21.6831 -177.59
lowerback -10.6543 -2.42196 1.15485
upperback -6.30999 -3.94167 1.77281
thorax -0.553358 -2.23557 0.795999
lowerneck -14.4629 0.988892 -6.96736
upperneck 30.8906 -1.71159 9.60634
head 12.7656 -1.10842 4.52867
rclavicle 1.78906e-015 -6.75868e-015
rhumerus -45.2554 1.60789 -89.6059
rradius 28.5683
rwrist 3.1173
rhand -16.427 -46.1601
rfingers 7.12502
rthumb 9.78823 -1155.91
lclavicle 1.78906e-015 -6.75868e-015
lhumerus -28.0045 -28.2518 97.5513
lradius 45.8188
lwrist 15.7516
lhand -35.9972 326.865
lfingers 7.12502
lthumb -9.10712 -3.35181
rfemur -30.9761 25.4302 19.59
rtibia 56.6187
rfoot -25.2811 -0.592481
rtoes -11.8891
lfemur -30.4824 -5.1933 -19.7645
ltibia 49.1411
lfoot -28.9856 3.74042
ltoes 4.20044
469
root -8.59036 16.6782 -9.50849 190.03 -21.0533 -178.004
lowerback -10.7273 -2.56144 0.795124
upperback -6.20539 -4.08585 1.70813
thorax -0.384758 -2.29419 0.906081
lowerneck -13.679 0.674799 -6.60654
upperneck 30.1658 -2.02123 8.90986
head 12.3305 -1.2886 4.10585
rclavicle -2.87244e-014 -1.82882e-014
rhumerus -45.0059 1.28241 -89.2302
rradius 27.9371
rwrist 2.20497
rhand -16.9725 -46.3321
rfingers 7.12502
rthumb 9.26184 -1156.11
lclavicle -2.87244e-014 -1.82882e-014
lhumerus -28.0225 -28.744 97.8341
lradius 46.2564
lwrist 15.9416
lhand -35.6749 326.995
lfingers 7.12502
lthumb -8.79605 -3.20846
rfemur -31.8483 24.6481 19.1943
rtibia 58.1529
rfoot -24.644 -1.07861
rtoes -15.6924
lfemur -30.179 -4.65889 -20.4103
ltibia 49.0399
lfoot -29.1118 3.9438
ltoes 3.73776
470
root -8.62094 16.6693 -9.53793 190.224 -20.241 -178.084
lowerback -10.1336 -2.57758 0.799607
upperback -6.50536 -4.12296 1.67445
thorax -1.02243 -2.32696 0.913993
lowerneck -13.8208 0.768465 -6.38791
upperneck 30.6622 -1.99732 8.70975
head 12.5569 -1.31208 4.00582
rclavicle -3.47625e-014 1.11319e-014
rhumerus -45.4562 0.874344 -88.8959
rradius 27.5983
rwrist 1.76385
rhand -17.5903 -46.6676
rfingers 7.12502
rthumb 8.66572 -1156.47
lclavicle -3.47625e-014 1.11319e-014
lhumerus -28.7608 -29.0311 98.3357
lradius 46.7578
lwrist 15.7971
lhand -35.8615 327.582
lfingers 7.12502
lthumb -8.97619 -2.62863
rfemur -33.0248 24.0733 19.0592
rtibia 59.7479
rfoot -23.8871 -0.87566
rtoes -16.7666
lfemur -30.0724 -3.99302 -20.6778
ltibia 48.9435
lfoot -29.156 4.14204
ltoes 4.02197
471
root -8.64723 16.6566 -9.56649 190.485 -19.5085 -178.182
lowerback -9.97603 -2.66334 0.669067
upperback -6.52541 -4.22657 1.66822
thorax -1.11959 -2.37636 0.981258
lowerneck -13.8044 0.678737 -6.07286
upperneck 30.5993 -2.10458 8.33003
head 12.5343 -1.37345 3.78181
rclavicle 3.27746e-014 -1.09332e-014
rhumerus -45.4955 0.228515 -88.3923
rradius 27.3933
rwrist 2.24354
rhand -18.0242 -46.6476
rfingers 7.12502
rthumb 8.24695 -1156.47
lclavicle 3.27746e-014 -1.09332e-014
lhumerus -28.8548 -29.4674 98.5894
lradius 47.0465
lwrist 15.958
lhand -36.1414 328.37
lfingers 7.12502
lthumb -9.24621 -1.85295
rfemur -34.3298 23.2975 18.9564
rtibia 61.4004
rfoot -23.2919 -1.02234
rtoes -18.1723
lfemur -30.1554 -3.47642 -20.9139
ltibia 48.917
lfoot -29.2419 4.10006
ltoes 5.14188
